<?xml version="1.0" standalone="no"?>
<!DOCTYPE svg PUBLIC "-//W3C//DTD SVG 1.1//EN" "http://www.w3.org/Graphics/SVG/1.1/DTD/svg11.dtd" >
<!--
2013-9-30: Created.
-->
<svg>
<metadata>
Created by iconfont
</metadata>
<defs>

<font id="iconfont" horiz-adv-x="1024" >
  <font-face
    font-family="iconfont"
    font-weight="500"
    font-stretch="normal"
    units-per-em="1024"
    ascent="896"
    descent="-128"
  />
    <missing-glyph />
    
    <glyph glyph-name="correct" unicode="&#58992;" d="M313.134255 420.603663l121.552403-241.612827c0 0 197.417255 490.988454 508.857427 654.643768-7.575536-116.885104-37.969776-218.207767 15.152095-342.936513-136.700405-31.166837-417.765779-381.946992-508.929058-553.383526C320.714907 100.991368 168.720168 225.720114 62.396607 264.729569L313.134255 420.603663 313.134255 420.603663 313.134255 420.603663zM313.134255 420.603663"  horiz-adv-x="1024" />

    
    <glyph glyph-name="correct1" unicode="&#59174;" d="M883.498667 627.498667a42.666667 42.666667 0 0 1-60.330667 0L426.666667 230.997333l-225.834667 225.834667a42.666667 42.666667 0 1 1-60.330667-60.330667l256-256a42.666667 42.666667 0 0 1 60.330667 0l426.666667 426.666667a42.666667 42.666667 0 0 1 0 60.330667z"  horiz-adv-x="1024" />

    
    <glyph glyph-name="correct2" unicode="&#58884;" d="M421.858 212.634l401.796 448.518c18.66 20.828 50.668 22.586 71.498 3.928 20.828-18.66 22.586-50.67 3.928-71.498L463.638 107.506c-18.606-20.768-50.5-22.586-71.344-4.066L129.004 337.364c-20.906 18.572-22.796 50.576-4.222 71.48 18.574 20.906 50.576 22.796 71.48 4.222L421.86 212.634z"  horiz-adv-x="1024" />

    
    <glyph glyph-name="correct-o" unicode="&#58902;" d="M512 810.666667C276.48 810.666667 85.333333 619.52 85.333333 384S276.48-42.666667 512-42.666667 938.666667 148.48 938.666667 384 747.52 810.666667 512 810.666667z m0-796.444445c-203.662222 0-369.777778 166.115556-369.777778 369.777778S308.337778 753.777778 512 753.777778 881.777778 587.662222 881.777778 384 715.662222 14.222222 512 14.222222zM678.115556 510.293333L461.937778 304.355556l-116.053334 110.364444c-11.377778 11.377778-29.582222 10.24-39.822222-1.137778-11.377778-11.377778-10.24-29.582222 1.137778-39.822222l135.395556-129.706667c5.688889-5.688889 12.515556-7.964444 19.342222-7.964444s13.653333 2.275556 19.342222 7.964444L716.8 469.333333c11.377778 11.377778 11.377778 28.444444 1.137778 39.822223-10.24 12.515556-28.444444 12.515556-39.822222 1.137777z"  horiz-adv-x="1024" />

    
    <glyph glyph-name="correct3" unicode="&#58903;" d="M512 810.666667C276.48 810.666667 85.333333 619.52 85.333333 384S276.48-42.666667 512-42.666667 938.666667 148.48 938.666667 384 747.52 810.666667 512 810.666667z m205.937778-341.333334L481.28 244.053333c-5.688889-5.688889-12.515556-7.964444-19.342222-7.964444s-13.653333 2.275556-19.342222 7.964444l-136.533334 129.706667c-11.377778 11.377778-11.377778 28.444444-1.137778 39.822222 11.377778 11.377778 28.444444 11.377778 39.822223 1.137778L461.937778 304.355556l216.177778 207.075555c11.377778 11.377778 29.582222 10.24 39.822222-1.137778 11.377778-11.377778 11.377778-29.582222 0-40.96z"  horiz-adv-x="1024" />

    
    <glyph glyph-name="fill-correct" unicode="&#58975;" d="M902.4512 727.2704a63.274667 63.274667 0 0 1-42.769067 16.273067h-4.5056c-0.955733 0-10.9824-0.938667-26.427733-0.938667-26.4192 0-76.458667 1.834667-124.629333 13.533867-61.917867 14.4384-133.76 82.235733-154.709334 95.7696C539.3664 858.282667 526.634667 861.866667 514.816 861.866667c-11.835733 0-23.620267-3.584-34.594133-9.9584-2.6112-1.792-77.2096-78.549333-149.998934-95.7696-48.2304-11.690667-100.1216-13.5424-125.585066-13.5424-16.349867 0-26.368 0.9472-27.281067 0.9472h-3.6096c-16.384 0-30.976-5.4784-42.760533-16.273067A57.5744 57.5744 0 0 1 110.933333 683.861333v-149.930666c0-552.832 377.608533-624.162133 393.045334-626.901334 3.669333-0.896 7.3216-0.896 10.9312-0.896 3.6096 0 7.3216 0 10.9312 0.896 16.341333 2.730667 395.758933 74.069333 395.758933 626.901334V683.861333c0 16.273067-7.3216 32.554667-19.0976 43.409067h-0.0512zM762.325333 513.1264L501.179733 262.0416c-1.809067-2.730667-3.6096-5.469867-6.3744-7.261867a38.7584 38.7584 0 0 0-27.272533-10.8032 42.496 42.496 0 0 0-28.219733 10.8032 21.9136 21.9136 0 0 0-5.461334 7.261867L293.76 396.6464a35.8144 35.8144 0 0 0-10.922667 25.736533c0 9.685333 3.933867 18.9696 10.922667 25.728 14.5408 14.4384 39.108267 14.4384 53.649067 0l120.1152-114.730666 241.152 231.261866c15.445333 14.4384 39.099733 14.4384 53.640533 0a34.440533 34.440533 0 0 0 11.605333-25.762133c0-9.8304-4.215467-19.2-11.605333-25.7536z"  horiz-adv-x="1024" />

    
    <glyph glyph-name="line-correct" unicode="&#58983;" d="M668.407467 511.0272a34.244267 34.244267 0 0 0 50.4832 0.853333c13.824-14.199467 14.506667-37.393067 1.877333-52.5312l-1.024-1.152-219.221333-240.836266a34.2016 34.2016 0 0 0-49.578667-1.749334l-1.109333 1.109334-105.326934 110.225066a39.697067 39.697067 0 0 0-0.426666 53.6832 34.2016 34.2016 0 0 0 49.416533 1.536l1.109333-1.109333 79.658667-83.362133 194.133333 213.333333zM512 878.933333c273.322667 0 494.933333-221.610667 494.933333-494.933333s-221.559467-494.933333-494.933333-494.933333C238.677333-110.933333 17.066667 110.626133 17.066667 384 17.066667 657.322667 238.677333 878.933333 512 878.933333z m3.157333-100.2496c-219.7248 0-397.841067-178.116267-397.841066-397.841066 0-219.716267 178.116267-397.841067 397.841066-397.841067 219.716267 0 397.841067 178.1248 397.841067 397.841067 0 219.7248-178.1248 397.841067-397.841067 397.841066z"  horiz-adv-x="1024" />

    
    <glyph glyph-name="ShoppingCart_" unicode="&#59578;" d="M398.293333-53.333333m-74.666666 0a74.666667 74.666667 0 1 1 149.333333 0 74.666667 74.666667 0 1 1-149.333333 0ZM696.96-53.333333m-74.666667 0a74.666667 74.666667 0 1 1 149.333334 0 74.666667 74.666667 0 1 1-149.333334 0ZM821.973333 896A202.026667 202.026667 0 1 1 1024 693.973333 202.026667 202.026667 0 0 1 821.973333 896zM917.333333 661.333333h-64v-64a32 32 0 0 0-64 0v64h-64a32 32 0 1 0 0 64h64V789.333333a32 32 0 1 0 64 0v-64h64a32 32 0 0 0 0-64zM827.946667 404.053333a42.666667 42.666667 0 0 1-51.413334-31.786666l-42.666666-180.266667H352.426667l-77.653334 277.333333h270.08a42.666667 42.666667 0 0 1 0 85.333334H250.88L211.84 694.186667A42.666667 42.666667 0 0 1 170.666667 725.333333H42.666667a42.666667 42.666667 0 0 1 0-85.333333h95.573333l140.586667-502.186667A42.666667 42.666667 0 0 1 320 106.666667h448a42.666667 42.666667 0 0 1 42.666667 32.853333l50.133333 213.333333a42.666667 42.666667 0 0 1-32.853333 51.2z"  horiz-adv-x="1024" />

    
    <glyph glyph-name="SHOPPINGCART" unicode="&#59416;" d="M884.08 774.552c-56.16 0-101.848-45.688-101.848-101.85 0-56.16 45.688-101.85 101.848-101.85s101.852 45.69 101.852 101.85c0 56.162-45.692 101.85-101.852 101.85zM756.786 709.996H278.754v-53.374h473.712c-0.68 5.24-1.02 10.626-1.02 16.062 0.002 12.954 1.846 25.472 5.34 37.312zM265.8 240.214a8.404 8.404 0 0 0-0.388 8.344l42.99 86.124h454.692l93.986 208.156a130.784 130.784 0 0 0-48.958 21.204l-79.478-175.986H303.354L181.082 709.996H33.966c-14.702 0-26.686-11.936-26.686-26.686 0-7.326 3.008-14.02 7.812-18.872 4.852-4.806 11.548-7.814 18.876-7.814h110.288l114.606-301.704-41.194-82.536c-10.14-20.33-8.492-44.202 4.61-63.078 11.84-17.08 31.926-26.542 52.742-26.542h537.274v53.374H273.126c-3.056 0-5.726 1.456-7.326 4.076zM766.52 717.274H271.476v-67.93h489.268l-1.062 8.212a118.472 118.472 0 0 0-0.958 15.128c0 12.06 1.696 23.92 5.036 35.252l2.76 9.338z m-22.066-53.374h-458.42V702.716h461.372a139.79 139.79 0 0 1-2.952-38.816zM271.976 244.064a1.144 1.144 0 0 0-0.052 1.244l40.978 82.098h454.892l99.662 220.726-8.908 1.836a122.85 122.85 0 0 0-46.238 20.026l-7.202 5.072-81.168-179.73H308.374L186.102 717.274H33.964C15.236 717.274 0 702.036 0 683.308c0-9.012 3.522-17.534 9.97-24.042 6.46-6.398 14.982-9.922 23.996-9.922h105.268l111.69-294.028-39.77-79.682c-11.29-22.632-9.32-49.636 5.138-70.472 12.882-18.582 34.834-29.674 58.726-29.674h544.552v67.93H273.126c-0.626-0.002-0.892 0.226-1.15 0.646z m533.04-54.022H275.018c-19.12 0-36.6 8.752-46.764 23.414-11.604 16.72-13.128 37.534-4.074 55.678l42.616 85.388L149.274 663.9H33.964a19.406 19.406 0 0 0-13.702 5.658c-3.68 3.716-5.708 8.6-5.708 13.75 0 10.702 8.706 19.408 19.408 19.408H176.06l122.272-321.938H733.34l77.9 172.496a136.97 136.97 0 0 1 35.586-15.456l-88.432-195.856H303.9l-44.998-90.15c-2.48-4.964-2.21-10.738 0.69-15.392 2.892-4.734 7.954-7.56 13.536-7.56h531.89v-38.818zM273.606 87.21c-16.802 0-30.472-13.692-30.472-30.52 0-16.8 13.67-30.47 30.472-30.47 16.826 0 30.514 13.67 30.514 30.47 0.002 16.828-13.688 30.52-30.514 30.52zM273.604 150.724c-51.918 0-94.034-42.118-94.034-94.034 0-51.918 42.116-94.034 94.034-94.034 51.966 0 94.034 42.114 94.034 94.034 0 51.916-42.068 94.034-94.034 94.034z m0-148.766c-30.228 0-54.732 24.502-54.732 54.73s24.502 54.78 54.732 54.78c30.278 0 54.78-24.552 54.78-54.78s-24.504-54.73-54.78-54.73zM756.6 87.21c-16.802 0-30.472-13.692-30.472-30.52 0-16.8 13.67-30.47 30.472-30.47 16.83 0 30.52 13.67 30.52 30.47 0 16.828-13.69 30.52-30.52 30.52zM756.6 150.724c-51.918 0-94.034-42.118-94.034-94.034 0-51.918 42.116-94.034 94.034-94.034 51.966 0 94.034 42.114 94.034 94.034 0 51.916-42.068 94.034-94.034 94.034z m0-148.766c-30.228 0-54.732 24.502-54.732 54.73s24.504 54.78 54.732 54.78c30.278 0 54.782-24.552 54.782-54.78s-24.506-54.73-54.782-54.73zM273.604 158.002c-55.864 0-101.312-45.448-101.312-101.312s45.448-101.312 101.312-101.312 101.312 45.448 101.312 101.312-45.448 101.312-101.312 101.312z m0-188.068c-47.836 0-86.756 38.918-86.756 86.756s38.918 86.756 86.756 86.756c47.836 0 86.756-38.918 86.756-86.756s-38.92-86.756-86.756-86.756zM273.604 118.748c-34.192 0-62.012-27.84-62.012-62.058 0-34.192 27.82-62.01 62.012-62.01 34.218 0 62.058 27.816 62.058 62.01 0.002 34.22-27.84 62.058-62.058 62.058z m0-109.51c-26.168 0-47.456 21.288-47.456 47.452 0 26.192 21.288 47.502 47.456 47.502 26.194 0 47.502-21.31 47.502-47.502 0-26.166-21.308-47.452-47.502-47.452zM756.598 158.002c-55.866 0-101.312-45.448-101.312-101.312s45.446-101.312 101.312-101.312 101.312 45.448 101.312 101.312-45.446 101.312-101.312 101.312z m0-188.068c-47.838 0-86.756 38.918-86.756 86.756s38.916 86.756 86.756 86.756 86.756-38.918 86.756-86.756-38.916-86.756-86.756-86.756zM756.598 118.748c-34.192 0-62.006-27.84-62.006-62.058 0-34.192 27.814-62.01 62.006-62.01 34.22 0 62.058 27.816 62.058 62.01 0 34.22-27.838 62.058-62.058 62.058z m0-109.51c-26.166 0-47.45 21.288-47.45 47.452 0 26.192 21.284 47.502 47.45 47.502 26.194 0 47.502-21.31 47.502-47.502 0-26.166-21.308-47.452-47.502-47.452zM235.692 573.496h573.384v-14.556H235.692zM273.604 485.018h495.512v-14.556H273.604zM514.082 656.64h14.556v-268.582h-14.556zM614.946 389.76l65.402 268.58 14.14-3.444-65.404-268.578zM337.582 654.936l14.146 3.442 65.374-268.576-14.144-3.444zM884.08 812.622c-77.15 0-139.916-62.768-139.916-139.918 0-77.152 62.764-139.918 139.916-139.918 77.15 0 139.92 62.768 139.92 139.918s-62.77 139.918-139.92 139.918z m0-265.28c-69.124 0-125.358 56.238-125.358 125.362s56.236 125.362 125.358 125.362c69.124 0 125.364-56.236 125.364-125.362s-56.24-125.362-125.364-125.362zM804.618 723.934l-12.226 7.904a109.294 109.294 0 0 1-7.506-13.654l13.22-6.084a94.98 94.98 0 0 0 6.512 11.834z m-11.254-24.472l-13.958 4.12a109.414 109.414 0 0 1-3.326-15.222l14.404-2.082a94.666 94.666 0 0 0 2.88 13.184z m28.95 44.802l-9.524 11.008a110.208 110.208 0 0 1-11.026-10.99l10.984-9.554a96.544 96.544 0 0 0 9.566 9.536z m-32.802-71.446l-14.556-0.114c0-5.154 0.364-10.34 1.086-15.412l14.414 2.046a95.236 95.236 0 0 0-0.944 13.48z m185.408 26.238l13.978 4.066a108.812 108.812 0 0 1-5.416 14.614l-13.248-6.024a95.266 95.266 0 0 0 4.686-12.656z m-182.666-85.264a110.028 110.028 0 0 1 9.334-12.46l11.002 9.528a95.558 95.558 0 0 0-8.094 10.808l-12.242-7.876z m186.4 58.572l14.556 0.332a109.244 109.244 0 0 1-1.052 15.186l-14.414-2.02a96.18 96.18 0 0 0 0.91-13.498z m-14.87 51.194l12.254 7.858a110.76 110.76 0 0 1-9.306 12.476l-11.022-9.506a96.466 96.466 0 0 0 8.074-10.828z m-8.026 31.374a110.352 110.352 0 0 1-12.434 9.386l-7.922-12.214a95.46 95.46 0 0 0 10.784-8.136l9.572 10.964z m-26.09 16.91a108.438 108.438 0 0 1-14.59 5.502l-4.142-13.954a93.914 93.914 0 0 0 12.628-4.76l6.104 13.212z m-136.362-125.694l-13.968-4.094a109.338 109.338 0 0 1 5.444-14.602l13.24 6.054a94.396 94.396 0 0 0-4.716 12.642z m19.29-55.832a110.14 110.14 0 0 1 12.452-9.358l7.894 12.23a95.432 95.432 0 0 0-10.794 8.112l-9.552-10.984z m133.088 10.692l9.496-11.032a109.78 109.78 0 0 1 11.05 10.966l-10.956 9.582a96.358 96.358 0 0 0-9.59-9.516z m29.056 44.736l13.95-4.15a108.268 108.268 0 0 1 3.364 15.214l-14.404 2.11a94.384 94.384 0 0 0-2.91-13.174z m-11.31-24.448l12.206-7.932a109.432 109.432 0 0 1 7.538 13.64l-13.21 6.112a95.716 95.716 0 0 0-6.534-11.82z m-66.296-42.266l2-14.418a109.232 109.232 0 0 1 15.248 3.244l-4.046 13.984a94 94 0 0 0-13.202-2.81z m25.862 7.482l6.008-13.256a109.126 109.126 0 0 1 13.684 7.428l-7.838 12.266a94.318 94.318 0 0 0-11.854-6.438z m-23.138 194.18a109.822 109.822 0 0 1-15.538 1.138l-0.028-14.556c4.516-0.01 9.046-0.342 13.462-0.986l2.104 14.404z m-61.144-207.234a109.192 109.192 0 0 1 14.604-5.466l4.112 13.964a94.544 94.544 0 0 0-12.652 4.734l-6.064-13.232z m0.232 198.596a109.398 109.398 0 0 1-13.676-7.458l7.866-12.248a95.08 95.08 0 0 0 11.846 6.464l-6.036 13.242z m29.844 8.708a108.434 108.434 0 0 1-15.238-3.276l4.074-13.974a94 94 0 0 0 13.192 2.836l-2.028 14.414z m-0.242-216.082c5.104-0.732 10.33-1.102 15.532-1.102v14.556a95.2 95.2 0 0 0-13.466 0.956l-2.066-14.41zM876.802 730.926h14.556v-116.444h-14.556zM825.86 679.984h116.446v-14.556H825.86z"  horiz-adv-x="1024" />

    
    <glyph glyph-name="Shoppingcartadd" unicode="&#58915;" d="M307.2 520.52992l-34.12992 204.8H102.4v-68.27008h112.83456l91.04384-546.12992h546.70336l68.62848 409.6H307.2z m307.2-68.25984h68.27008V179.2H614.4V452.27008zM546.12992 179.2h-68.25984V452.27008h68.25984V179.2z m-182.05696 0l-45.4656 273.07008H409.6V179.2h-45.52704z m431.09376 0h-44.2368V452.27008h89.74336L795.16672 179.2zM443.72992 25.6m-51.2 0a51.2 51.2 0 1 1 102.4 0 51.2 51.2 0 1 1-102.4 0ZM716.8 25.6m-51.2 0a51.2 51.2 0 1 1 102.4 0 51.2 51.2 0 1 1-102.4 0ZM785.07008 793.6v-68.27008H716.8v-68.25984h68.27008V588.8h68.25984v68.27008H921.6v68.25984h-68.27008V793.6z"  horiz-adv-x="1024" />

    
    <glyph glyph-name="Shoppingcartdelete" unicode="&#58916;" d="M307.2 554.67008l-34.12992 204.8H102.4V691.2h112.83456l91.04384-546.12992h546.70336l68.62848 409.6H307.2zM614.4 486.4h68.27008v-273.07008H614.4V486.4z m-68.27008-273.07008h-68.25984V486.4h68.25984v-273.07008z m-182.05696 0L318.59712 486.4H409.6v-273.07008h-45.52704z m431.09376 0h-44.2368V486.4h89.74336l-45.50656-273.07008zM443.72992 59.72992m-51.2 0a51.2 51.2 0 1 1 102.4 0 51.2 51.2 0 1 1-102.4 0ZM716.8 59.72992m-51.2 0a51.2 51.2 0 1 1 102.4 0 51.2 51.2 0 1 1-102.4 0ZM716.8 759.47008h204.8V691.2H716.8z"  horiz-adv-x="1024" />

    
    <glyph glyph-name="Shoppingcartfinancebusiness" unicode="&#58917;" d="M443.72992 42.67008A68.28032 68.28032 0 0 0 375.47008-25.6a68.27008 68.27008 0 1 0 68.25984 68.27008zM750.92992 42.67008c0-37.67296-30.55616-68.27008-68.25984-68.27008S614.4 4.99712 614.4 42.67008c0 37.7344 30.5664 68.27008 68.27008 68.27008s68.25984-30.53568 68.25984-68.27008zM921.6 657.07008H260.49536l-10.89536 69.13024c-5.86752 37.0688-41.3696 67.39968-78.92992 67.39968H102.4v-68.25984h78.20288l86.30272-546.53952c2.92864-18.5344 20.69504-33.73056 39.46496-33.73056h546.95936v68.27008H330.56768L319.77472 281.6h533.5552L921.6 657.07008z m-125.22496-307.2H309.00224L271.26784 588.8h568.53504l-43.42784-238.92992z"  horiz-adv-x="1024" />

    
    <glyph glyph-name="Shoppingcartadd1" unicode="&#58935;" d="M307.2 520.52992l-34.12992 204.8H102.4v-68.25984h112.83456l91.04384-546.14016h546.70336l68.62848 409.6H307.2zM443.72992 25.6m-51.2 0a51.2 51.2 0 1 1 102.4 0 51.2 51.2 0 1 1-102.4 0ZM716.8 25.6m-51.2 0a51.2 51.2 0 1 1 102.4 0 51.2 51.2 0 1 1-102.4 0ZM785.07008 793.6v-68.27008H716.8v-68.25984h68.27008V588.8h68.25984v68.27008H921.6v68.25984h-68.27008V793.6z"  horiz-adv-x="1024" />

    
    <glyph glyph-name="Shoppingcartdelete1" unicode="&#58936;" d="M307.2 554.67008l-34.12992 204.8H102.4V691.2h112.83456l91.04384-546.12992h546.70336l68.62848 409.6H307.2zM443.72992 59.72992m-51.2 0a51.2 51.2 0 1 1 102.4 0 51.2 51.2 0 1 1-102.4 0ZM716.8 59.72992m-51.2 0a51.2 51.2 0 1 1 102.4 0 51.2 51.2 0 1 1-102.4 0ZM716.8 759.47008h204.8V691.2H716.8z"  horiz-adv-x="1024" />

    
    <glyph glyph-name="Shoppingcart" unicode="&#58937;" d="M443.72992 42.65984A68.28032 68.28032 0 0 0 375.47008-25.6a68.27008 68.27008 0 1 0 68.25984 68.25984zM750.92992 42.65984c0-37.66272-30.55616-68.25984-68.25984-68.25984S614.4 4.99712 614.4 42.65984c0 37.74464 30.5664 68.28032 68.27008 68.28032s68.25984-30.53568 68.25984-68.28032zM921.6 657.05984H260.49536l-10.89536 69.14048C243.73248 763.25888 208.2304 793.6 170.67008 793.6H102.4v-68.25984h78.20288l86.30272-546.53952c2.92864-18.54464 20.69504-33.7408 39.46496-33.7408h546.95936v68.28032H330.56768L319.77472 281.6h533.5552L921.6 657.05984z"  horiz-adv-x="1024" />

    
    <glyph glyph-name="error" unicode="&#58924;" d="M512 831.696462c-247.25636 0-447.696462-200.440102-447.696462-447.696462 0-247.254314 200.440102-447.696462 447.696462-447.696462s447.696462 200.440102 447.696462 447.696462S759.25636 831.696462 512 831.696462zM710.491727 230.733291c12.491499-12.491499 12.489452-32.729425-0.002047-45.220924-6.246261-6.246261-14.429641-9.370415-22.611997-9.370415s-16.363689 3.121084-22.60995 9.366322L512 338.777029 358.730221 185.508273c-6.246261-6.246261-14.429641-9.366322-22.611997-9.366322s-16.365736 3.125177-22.611997 9.370415c-12.491499 12.491499-12.491499 32.729425 0 45.220924l153.268756 153.266709L313.50725 537.269779c-12.491499 12.491499-12.489452 32.729425 0.002047 45.220924s32.729425 12.495592 45.220924 0.004093l153.268756-153.268756 153.268756 153.268756c12.491499 12.491499 32.729425 12.487406 45.220924-0.004093s12.493545-32.729425 0.002047-45.220924L557.225017 384 710.491727 230.733291z"  horiz-adv-x="1024" />

    
    <glyph glyph-name="error1" unicode="&#60215;" d="M553.984 342.016l0 256-84.010667 0 0-256 84.010667 0zM553.984 169.984l0 86.016-84.010667 0 0-86.016 84.010667 0zM512 809.984q176 0 301.013333-125.013333t125.013333-301.013333-125.013333-301.013333-301.013333-125.013333-301.013333 125.013333-125.013333 301.013333 125.013333 301.013333 301.013333 125.013333z"  horiz-adv-x="1024" />

    
    <glyph glyph-name="errorsign" unicode="&#59214;" d="M512 810.667c-235.648 0-426.667-191.019-426.667-426.667s191.019-426.667 426.667-426.667c235.648 0 426.667 191.019 426.667 426.667s-191.019 426.667-426.667 426.667zM512 42.667c-188.203 0-341.333 153.131-341.333 341.333s153.131 341.333 341.333 341.333 341.333-153.131 341.333-341.333-153.131-341.333-341.333-341.333zM644.181 562.987l-120.107-124.331-120.064 124.331-61.397-59.264 122.155-126.464-122.155-126.421 61.355-59.264 120.064 124.245 120.107-124.331 61.355 59.349-122.112 126.421 122.155 126.421z"  horiz-adv-x="1024" />

    
    <glyph glyph-name="error2" unicode="&#59106;" d="M512 856.615385C252.061538 856.615385 39.384615 643.938462 39.384615 384s212.676923-472.615385 472.615385-472.615385 472.615385 212.676923 472.615385 472.615385S771.938462 856.615385 512 856.615385z m234.338462-506.092308c-1.969231-13.784615-13.784615-25.6-29.538462-25.6H307.2c-15.753846 0-27.569231 9.846154-29.538462 25.6-1.969231 23.630769-1.969231 45.292308 0 66.953846 1.969231 13.784615 13.784615 25.6 29.538462 25.6h409.6c15.753846 0 27.569231-11.815385 29.538462-25.6 1.969231-23.630769 1.969231-45.292308 0-66.953846z"  horiz-adv-x="1024" />

    
    <glyph glyph-name="error3" unicode="&#59359;" d="M512 176m-48 0a48 48 0 1 1 96 0 48 48 0 1 1-96 0ZM480 480v-184c0-4.4 3.6-8 8-8h48c4.4 0 8 3.6 8 8V480c0 4.4-3.6 8-8 8h-48c-4.4 0-8-3.6-8-8zM955.7 40l-416 720c-6.2 10.7-16.9 16-27.7 16s-21.6-5.3-27.7-16l-416-720C56 18.6 71.4-8 96-8h832c24.6 0 40 26.6 27.7 48z m-783.5 27.9L512 656.1l339.8-588.2H172.2z"  horiz-adv-x="1024" />

    
    <glyph glyph-name="Shapex" unicode="&#58912;" d="M512 896C229.205333 896 0 666.794667 0 384s229.205333-512 512-512 512 229.205333 512 512S794.794667 896 512 896z m0-796.458667A56.917333 56.917333 0 1 0 511.957333 213.333333 56.917333 56.917333 0 0 0 512 99.541333z m54.186667 227.797334h0.128a60.501333 60.501333 0 0 0-53.802667-55.893334c2.048-0.256 3.882667-1.152 5.973333-1.152h-11.818666c2.048 0 3.84 0.981333 5.845333 1.109334a59.093333 59.093333 0 0 0-53.162667 55.893333l-13.056 284.16a54.314667 54.314667 0 0 0 54.613334 57.045333h26.282666a52.992 52.992 0 0 0 54.186667-57.002666l-15.146667-284.16z"  horiz-adv-x="1024" />

    
    <glyph glyph-name="error4" unicode="&#59324;" d="M512-104.727273a488.727273 488.727273 0 1 0 488.727273 488.727273 488.727273 488.727273 0 0 0-488.727273-488.727273z m0 919.272728a430.545455 430.545455 0 1 1 430.545455-430.545455A430.545455 430.545455 0 0 1 512 814.545455zM721.454545 145.454545a28.974545 28.974545 0 0 0-20.596363 8.494546L281.6 573.556364a29.090909 29.090909 0 0 0 41.192727 41.192727L742.4 195.141818A29.090909 29.090909 0 0 0 721.454545 145.454545zM302.545455 145.454545a29.090909 29.090909 0 0 0-20.596364 49.687273l419.258182 419.607273a29.090909 29.090909 0 0 0 41.192727-41.192727L322.792727 153.949091a28.974545 28.974545 0 0 0-20.247272-8.494546z"  horiz-adv-x="1024" />

    
    <glyph glyph-name="error5" unicode="&#59078;" d="M512 896C229.376 896 0 666.624 0 384s229.376-512 512-512 512 229.376 512 512S794.624 896 512 896z m218.624-672.256c15.872-15.872 15.872-41.984 0-57.856-8.192-8.192-18.432-11.776-29.184-11.776s-20.992 4.096-29.184 11.776L512 326.144l-160.256-160.256c-8.192-8.192-18.432-11.776-29.184-11.776s-20.992 4.096-29.184 11.776c-15.872 15.872-15.872 41.984 0 57.856L454.144 384 293.376 544.256c-15.872 15.872-15.872 41.984 0 57.856 15.872 15.872 41.984 15.872 57.856 0L512 441.856l160.256 160.256c15.872 15.872 41.984 15.872 57.856 0 15.872-15.872 15.872-41.984 0-57.856L569.856 384l160.768-160.256z"  horiz-adv-x="1024" />

    
    <glyph glyph-name="Error-Doc" unicode="&#59922;" d="M546.133333 93.866667c0 119.466667 81.92 218.453333 191.146667 249.173333 6.826667 3.413333 13.653333 6.826667 13.653333 17.066667V878.933333c0 10.24-6.826667 17.066667-17.066666 17.066667H249.173333c-3.413333 0-3.413333-3.413333-6.826666-3.413333l-238.933334-238.933334s-3.413333-3.413333-3.413333-6.826666v-655.36c0-10.24 6.826667-17.066667 17.066667-17.066667h532.48c13.653333 0 20.48 13.653333 17.066666 23.893333-13.653333 27.306667-20.48 61.44-20.48 95.573334zM221.866667 657.066667H58.026667L238.933333 837.973333v-163.84c0-10.24-6.826667-17.066667-17.066666-17.066666z m238.933333-102.4H409.6v-256c0-37.546667-37.546667-68.266667-85.333333-68.266667s-85.333333 30.72-85.333334 68.266667 37.546667 68.266667 85.333334 68.266666c20.48 0 37.546667-6.826667 51.2-13.653333V571.733333c0 10.24 6.826667 17.066667 17.066666 17.066667h68.266667c10.24 0 17.066667-6.826667 17.066667-17.066667s-6.826667-17.066667-17.066667-17.066666zM802.133333 315.733333c-122.88 0-221.866667-98.986667-221.866666-221.866666s98.986667-221.866667 221.866666-221.866667 221.866667 98.986667 221.866667 221.866667-98.986667 221.866667-221.866667 221.866666z m81.92-276.48c6.826667-6.826667 6.826667-17.066667 0-23.893333-3.413333-6.826667-10.24-6.826667-13.653333-6.826667s-10.24 0-13.653333 3.413334l-54.613334 54.613333-54.613333-54.613333c-3.413333-3.413333-10.24-3.413333-13.653333-3.413334s-10.24 0-13.653334 3.413334c-6.826667 6.826667-6.826667 17.066667 0 23.893333l54.613334 54.613333-54.613334 54.613334c-6.826667 6.826667-6.826667 17.066667 0 23.893333s17.066667 6.826667 23.893334 0l54.613333-54.613333 54.613333 54.613333c6.826667 6.826667 17.066667 6.826667 23.893334 0s6.826667-17.066667 0-23.893333l-54.613334-54.613334 61.44-51.2z"  horiz-adv-x="1024" />

    
    <glyph glyph-name="Error-Cloud" unicode="&#60080;" d="M808.96 605.866667c-37.546667 143.36-163.84 238.933333-314.026667 238.933333C317.44 844.8 170.666667 698.026667 170.666667 520.533333v-17.066666c-95.573333-6.826667-170.666667-88.746667-170.666667-187.733334 0-102.4 85.333333-187.733333 187.733333-187.733333h34.133334c10.24 0 17.066667 6.826667 17.066666 17.066667 0 139.946667 116.053333 256 256 256S750.933333 285.013333 750.933333 145.066667c0-10.24 6.826667-17.066667 17.066667-17.066667h17.066667c133.12 0 238.933333 105.813333 238.933333 238.933333 0 122.88-92.16 225.28-215.04 238.933334zM494.933333 366.933333C372.053333 366.933333 273.066667 267.946667 273.066667 145.066667s98.986667-221.866667 221.866666-221.866667S716.8 22.186667 716.8 145.066667s-98.986667 221.866667-221.866667 221.866666z m81.92-276.48c6.826667-6.826667 6.826667-17.066667 0-23.893333-3.413333-3.413333-6.826667-3.413333-13.653333-3.413333s-10.24 0-13.653333 3.413333l-54.613334 54.613333-54.613333-54.613333c-3.413333-3.413333-6.826667-3.413333-13.653333-3.413333s-10.24 0-13.653334 3.413333c-6.826667 6.826667-6.826667 17.066667 0 23.893333l54.613334 54.613334-54.613334 54.613333c-6.826667 6.826667-6.826667 17.066667 0 23.893333s17.066667 6.826667 23.893334 0l54.613333-54.613333 54.613333 54.613333c6.826667 6.826667 17.066667 6.826667 23.893334 0s6.826667-17.066667 0-23.893333L518.826667 145.066667l58.026666-54.613334z"  horiz-adv-x="1024" />

    
    <glyph glyph-name="Error" unicode="&#58910;" d="M554.069333 341.930667v256.426666h-84.138666v-256.426666h84.138666z m0-172.288v86.186666h-84.138666v-86.186666h84.138666zM512 810.666667c77.952 0 150.101333-19.498667 216.405333-58.453334a404.394667 404.394667 0 0 0 151.808-151.808A419.626667 419.626667 0 0 0 938.666667 384a419.626667 419.626667 0 0 0-58.453334-216.405333 404.394667 404.394667 0 0 0-151.808-151.808A419.626667 419.626667 0 0 0 512-42.666667a419.626667 419.626667 0 0 0-216.405333 58.453334 412.032 412.032 0 0 0-151.808 152.832A417.706667 417.706667 0 0 0 85.333333 384a417.706667 417.706667 0 0 0 58.453334 215.381333A419.925333 419.925333 0 0 0 296.618667 752.213333 417.706667 417.706667 0 0 0 512 810.666667z"  horiz-adv-x="1024" />

    
    <glyph glyph-name="right" unicode="&#58943;" d="M310.123176 832.5192 265.320785 787.644153 668.970054 383.978511 265.320785-19.670759 310.123176-64.5192 758.679215 383.979534Z"  horiz-adv-x="1024" />

    
    <glyph glyph-name="right_" unicode="&#58939;" d="M368.4352 89.8048s346.624 280.9856 346.624 281.088c11.1616 8.704 3.7888 17.408 2.1504 18.944-0.1024 0.1024-339.7632 287.232-339.7632 287.232-7.7824 7.4752-19.5584 4.9152-25.1904-0.7168-7.168-7.168-9.216-17.92 0.2048-27.8528L670.72 381.952 345.8048 120.4224c-6.5536-5.3248-9.9328-16.384-1.3312-27.3408 5.7344-7.2704 16.9984-8.0896 23.9616-3.2768z"  horiz-adv-x="1024" />

    
    <glyph glyph-name="right1" unicode="&#58918;" d="M684.57 445.93l-0.134-0.133L339.43 790.803l-61.863-61.864 345.005-345.006L277.7 39.061l61.864-61.864L684.436 322.07l61.863 61.863 0.134 0.134z"  horiz-adv-x="1024" />

    
    <glyph glyph-name="right2" unicode="&#58923;" d="M160.117 683.974v82.233a8 8 0 0 0 13.33 5.966l407.697-364.298c0.9-0.804 1.753-1.658 2.556-2.558 11.764-13.186 10.62-33.419-2.556-45.192L173.448-4.173a8 8 0 0 0-13.33 5.966v82.233a16 16 0 0 0 5.338 11.93L487.814 384 165.456 672.043a16 16 0 0 0-5.339 11.931z m272.057 0v82.233a8 8 0 0 0 13.33 5.966l407.697-364.298c0.9-0.804 1.753-1.658 2.556-2.558 11.764-13.186 10.62-33.419-2.556-45.192L445.505-4.173a8 8 0 0 0-13.33 5.966v82.233a16 16 0 0 0 5.339 11.93L759.87 384 437.514 672.043a16 16 0 0 0-5.34 11.931z"  horiz-adv-x="1024" />

    
    <glyph glyph-name="Rightbutton" unicode="&#59237;" d="M512 746.666667c200.298667 0 362.666667-162.368 362.666667-362.666667s-162.368-362.666667-362.666667-362.666667S149.333333 183.701333 149.333333 384 311.701333 746.666667 512 746.666667z m0-64c-164.949333 0-298.666667-133.717333-298.666667-298.666667s133.717333-298.666667 298.666667-298.666667 298.666667 133.717333 298.666667 298.666667-133.717333 298.666667-298.666667 298.666667z m-42.666667-104.085334L663.914667 384 469.333333 189.418667 424.085333 234.666667l149.333334 149.333333-149.333334 149.333333L469.333333 578.581333z"  horiz-adv-x="1024" />

    
    <glyph glyph-name="right3" unicode="&#58896;" d="M396.373333 549.546667L561.92 384l-165.546667-165.546667a42.496 42.496 0 1 1 60.16-60.16l195.84 195.84a42.496 42.496 0 0 1 0 60.16L456.533333 610.133333a42.496 42.496 0 0 1-60.16 0c-16.213333-16.64-16.64-43.946667 0-60.586666z"  horiz-adv-x="1024" />

    
    <glyph glyph-name="right4" unicode="&#58920;" d="M761.056 363.872c0.512 0.992 1.344 1.824 1.792 2.848 8.8 18.304 5.92 40.704-9.664 55.424L399.936 756.256a48 48 0 0 1-65.984-69.76l316.96-299.84-315.712-304.288a48 48 0 0 1 66.624-69.12l350.048 337.376c0.672 0.672 0.928 1.6 1.6 2.304 0.512 0.48 1.056 0.832 1.568 1.344 2.72 2.848 4.16 6.336 6.016 9.6z"  horiz-adv-x="1024" />

    
    <glyph glyph-name="you" unicode="&#58930;" d="M512 734c47.3 0 93.1-9.2 136.2-27.5 41.7-17.6 79.1-42.9 111.3-75 32.2-32.2 57.4-69.6 75-111.3C852.8 477.1 862 431.3 862 384s-9.2-93.1-27.5-136.2c-17.6-41.7-42.9-79.1-75-111.3-32.2-32.2-69.6-57.4-111.3-75C605.1 43.200000000000045 559.3 34 512 34s-93.1 9.2-136.2 27.5c-41.7 17.6-79.1 42.9-111.3 75-32.2 32.2-57.4 69.6-75 111.3C171.2 290.9 162 336.70000000000005 162 384s9.2 93.1 27.5 136.2c17.6 41.7 42.9 79.1 75 111.3 32.2 32.2 69.6 57.4 111.3 75C418.9 724.8 464.7 734 512 734m0 80C274.5 814 82 621.5 82 384s192.5-430 430-430 430 192.5 430 430S749.5 814 512 814zM441.3 575.7c-12.8 0-25.6-4.9-35.4-14.6-19.5-19.5-19.5-51.2 0-70.7L512.3 384 405.9 277.6c-19.5-19.5-19.5-51.2 0-70.7 9.8-9.8 22.6-14.6 35.4-14.6s25.6 4.9 35.4 14.6l141.4 141.4c9.8 9.8 14.7 22.8 14.6 35.6 0.1 12.9-4.8 25.8-14.6 35.6L476.6 561.1c-9.7 9.7-22.5 14.6-35.3 14.6z"  horiz-adv-x="1024" />

    
    <glyph glyph-name="left" unicode="&#58901;" d="M327.243601 300.002047 696.755376-34.561775 696.755376 634.560752Z"  horiz-adv-x="1024" />

    
    <glyph glyph-name="left1" unicode="&#58899;" d="M687.829588 799.900292c-5.437849 5.437849-14.248516 5.437849-19.686365 0l-419.98533-419.972027c-2.610454-2.610454-4.078899-6.144954-4.078899-9.843182 0-3.698229 1.468444-7.232728 4.078899-9.843182l419.98533-419.98533c2.718925-2.718925 6.281053-4.078899 9.843182-4.078899s7.124258 1.359974 9.843182 4.078899c5.437849 5.437849 5.437849 14.248516 0 19.686365L277.68744 370.085082 687.829588 780.213927C693.26846 785.652799 693.26846 794.462442 687.829588 799.900292z"  horiz-adv-x="1024" />

    
    <glyph glyph-name="Left" unicode="&#58897;" d="M734.2-49c-17.5-17.5-45.8-17.5-63.3 0L300.7 321.2c-35 35-35 91.7 0 126.6l372.9 373c17.3 17.3 45.3 17.5 62.8 0.5 17.9-17.4 18.1-46.1 0.5-63.8L395.7 416.2c-17.5-17.5-17.5-45.8 0-63.3l338.6-338.6c17.4-17.5 17.4-45.8-0.1-63.3z"  horiz-adv-x="1024" />

    
    <glyph glyph-name="left2" unicode="&#58961;" d="M967.3 384.1c0-61.4-12-121-35.7-177.1-22.9-54.2-55.7-102.8-97.5-144.6s-90.5-74.6-144.6-97.5c-56.1-23.7-115.7-35.7-177.1-35.7s-121 12-177.1 35.7c-54.2 22.9-102.8 55.7-144.6 97.5-41.9 41.8-74.8 90.4-97.7 144.6-23.7 56.1-35.7 115.7-35.7 177.1s12 121 35.7 177.1c22.9 54.2 55.7 102.8 97.5 144.6s90.5 74.6 144.6 97.5C391.2 827 450.8 839 512.2 839s121-12 177.1-35.7c54.2-22.9 102.8-55.7 144.6-97.5s74.6-90.5 97.5-144.6c23.9-56.1 35.9-115.7 35.9-177.1m40 0c0 273.4-221.6 495-495 495s-495-221.6-495-495 221.6-495 495-495 495 221.6 495 495zM397.7 386.8c0 19.2 7.5 37.3 21 50.8l129.6 129.6c7.8 7.8 20.5 7.8 28.3 0s7.8-20.5 0-28.3L446.9 409.3c-6-6-9.3-14-9.3-22.5s3.3-16.5 9.3-22.5l0.1-0.1 133.6-135c7.8-7.9 7.7-20.5-0.2-28.3-7.9-7.8-20.5-7.7-28.3 0.2l-133.5 135c-13.5 13.5-20.9 31.5-20.9 50.7z"  horiz-adv-x="1024" />

    
    <glyph glyph-name="left3" unicode="&#58933;" d="M409.6 384l196.266667 192c12.8 12.8 12.8 38.4 0 51.2-12.8 12.8-38.4 12.8-51.2 0l-226.133334-217.6c-12.8-12.8-12.8-38.4 0-51.2l226.133334-217.6c12.8-12.8 38.4-12.8 51.2 0 12.8 12.8 12.8 38.4 0 51.2L409.6 384z"  horiz-adv-x="1024" />

    
    <glyph glyph-name="left4" unicode="&#58929;" d="M512 734c47.3 0 93.1-9.2 136.2-27.5 41.7-17.6 79.1-42.9 111.3-75 32.2-32.2 57.4-69.6 75-111.3C852.8 477.1 862 431.3 862 384s-9.2-93.1-27.5-136.2c-17.6-41.7-42.9-79.1-75-111.3-32.2-32.2-69.6-57.4-111.3-75C605.1 43.200000000000045 559.3 34 512 34s-93.1 9.2-136.2 27.5c-41.7 17.6-79.1 42.9-111.3 75-32.2 32.2-57.4 69.6-75 111.3C171.2 290.9 162 336.70000000000005 162 384s9.2 93.1 27.5 136.2c17.6 41.7 42.9 79.1 75 111.3 32.2 32.2 69.6 57.4 111.3 75C418.9 724.8 464.7 734 512 734m0 80C274.5 814 82 621.5 82 384s192.5-430 430-430 430 192.5 430 430S749.5 814 512 814zM582.7 575.7c-12.8 0-25.6-4.9-35.4-14.6L405.9 419.6c-9.8-9.8-14.7-22.8-14.6-35.6-0.1-12.9 4.8-25.8 14.6-35.6L547.3 207c9.8-9.8 22.6-14.6 35.4-14.6s25.6 4.9 35.4 14.6c19.5 19.5 19.5 51.2 0 70.7L511.7 384l106.4 106.4c19.5 19.5 19.5 51.2 0 70.7-9.8 9.7-22.6 14.6-35.4 14.6z"  horiz-adv-x="1024" />

    
    <glyph glyph-name="up" unicode="&#58881;" d="M1024 300C1024 17.23 794.77-212 512-212s-512 229.23-512 512 229.23 512 512 512S1024 582.77 1024 300zM96 300c0-229.75 186.25-416 416-416S928 70.25 928 300s-186.25 416-416 416S96 529.75 96 300zM557.254 601.256l256-256.002c24.994-24.992 24.994-65.514 0-90.508-24.994-24.994-65.516-24.994-90.51 0L576 401.49 576 44c0-35.346-28.654-64-64-64-35.346 0-64 28.654-64 64l0 357.49-146.744-146.746c-24.994-24.994-65.518-24.994-90.512 0C198.248 267.242 192 283.622 192 300s6.248 32.758 18.744 45.254l256 256.002C491.738 626.248 532.262 626.248 557.254 601.256z"  horiz-adv-x="1024" />

    
    <glyph glyph-name="up1" unicode="&#58895;" d="M504.962 567.731q-102.937-102.937-412.627-412.627-6.159-6.159-13.197-6.159-7.038 0-12.317 6.159-6.159 6.159-6.159 12.317 0 6.159 6.159 13.197 144.287 144.287 431.983 431.983 6.159 6.159 13.197 6.159 6.159 0 12.317-6.159 0.88-0.88 1.76-1.76 107.336-107.336 431.103-430.223 6.159-6.159 6.159-12.317 0-7.038-6.159-13.197-6.159-6.159-13.197-6.159-6.159 0-12.317 6.159-138.129 137.249-414.387 412.627-6.159 6.159-12.317 0z"  horiz-adv-x="1024" />

    
    <glyph glyph-name="up2" unicode="&#58883;" d="M967.111111 384A455.111111 455.111111 0 1 1 56.888889 384a455.111111 455.111111 0 0 1 910.222222 0zM170.666667 384c0 188.245333 153.088 341.333333 341.333333 341.333333s341.333333-153.088 341.333333-341.333333-153.088-341.333333-341.333333-341.333333-341.333333 153.088-341.333333 341.333333zM568.775111 212.764444V419.441778l73.557333-74.922667c22.300444-22.072889 58.311111-22.072889 80.611556 0s22.243556 57.799111 0 79.815111l-168.789333 170.666667A57.287111 57.287111 0 0 1 513.820444 611.555556l-1.934222-0.056889C511.260444 611.441778 510.577778 611.555556 509.952 611.555556c-15.132444 0-29.639111-5.973333-40.334222-16.554667l-168.789334-170.666667c-22.243556-22.072889-22.243556-57.799111 0-79.815111s58.311111-22.072889 80.611556 0l73.614222 74.922667v-206.677334c0-31.118222 25.201778-56.32 56.32-56.32h1.024a56.32 56.32 0 0 1 56.32 56.32z"  horiz-adv-x="1024" />

    
    <glyph glyph-name="up3" unicode="&#59519;" d="M950.4 198.4l-416 416c-12.8 12.8-32 12.8-44.8 0l-416-416c-12.8-12.8-12.8-32 0-44.8s32-12.8 44.8 0L512 547.2l393.6-393.6c6.4-6.4 16-9.6 22.4-9.6s16 3.2 22.4 9.6c12.8 12.8 12.8 32 0 44.8z"  horiz-adv-x="1024" />

    
    <glyph glyph-name="Up-" unicode="&#59234;" d="M785.066667 196.266667H273.066667c-6.826667 0-10.24 3.413333-13.653334 10.24s-3.413333 10.24 0 17.066666l238.933334 409.6c3.413333 3.413333 6.826667 6.826667 13.653333 6.826667s10.24-3.413333 13.653333-6.826667l273.066667-409.6c3.413333-6.826667 3.413333-13.653333 0-17.066666 0-6.826667-6.826667-10.24-13.653333-10.24z m-481.28 34.133333h450.56L512 592.213333 303.786667 230.4zM512-110.933333C238.933333-110.933333 17.066667 110.933333 17.066667 384S238.933333 878.933333 512 878.933333 1006.933333 657.066667 1006.933333 384 785.066667-110.933333 512-110.933333z m0 955.733333C259.413333 844.8 51.2 636.586667 51.2 384S259.413333-76.8 512-76.8 972.8 131.413333 972.8 384 764.586667 844.8 512 844.8z"  horiz-adv-x="1024" />

    
    <glyph glyph-name="up4" unicode="&#59037;" d="M64 384A448 448 0 1 1 512 832 448 448 0 0 1 64 384z m497.28 210.24a729.6 729.6 0 0 0 224-224 96 96 0 1 0-164.48-98.88 496 496 0 0 1-108.8 122.56 564.8 564.8 0 0 1-109.12-123.52 96 96 0 1 0-164.48 98.88 729.6 729.6 0 0 0 224 224 96 96 0 0 0 98.88 0.96z"  horiz-adv-x="1024" />

    
    <glyph glyph-name="up5" unicode="&#58963;" d="M755.2 298.666667l-217.6 226.133333c-12.8 12.8-38.4 12.8-51.2 0L264.533333 298.666667c-12.8-12.8-12.8-38.4 0-51.2 12.8-12.8 38.4-12.8 51.2 0l192 196.266666 192-196.266666c12.8-12.8 38.4-12.8 51.2 0 21.333333 12.8 21.333333 38.4 4.266667 51.2z"  horiz-adv-x="1024" />

    
    <glyph glyph-name="up6" unicode="&#58993;" d="M545.322667 487.808l-297.301334-286.549333a33.706667 33.706667 0 0 0-46.421333 0 30.805333 30.805333 0 0 0 0 44.714666L544 576l342.4-330.026667c12.8-12.373333 12.8-32.341333 0-44.714666a33.706667 33.706667 0 0 0-46.421333 0l-294.656 286.549333z"  horiz-adv-x="1024" />

    
    <glyph glyph-name="UP" unicode="&#58978;" d="M512-128a512 512 0 1 0 512 512 512 512 0 0 0-512-512z m0 960a448 448 0 1 1 448-448A448 448 0 0 1 512 832z m224-512a32 32 0 0 0-54.624-22.72L512 466.88l-169.376-169.6a32.064 32.064 0 0 0-45.248 45.44l192 192a32.224 32.224 0 0 0 45.248 0l192-192A32 32 0 0 0 736 320z"  horiz-adv-x="1024" />

    
    <glyph glyph-name="uparrow" unicode="&#58913;" d="M199.36 323.232a31.904 31.904 0 0 1 22.624 9.376l294.144 294.144 285.728-285.728a31.968 31.968 0 1 1 45.248 45.248L538.752 694.624a32 32 0 0 1-45.28 0L176.704 377.856a31.968 31.968 0 0 1 22.656-54.624zM538.784 438.624a32 32 0 0 1-45.28 0L176.736 121.856a31.968 31.968 0 1 1 45.248-45.248l294.144 294.144 285.728-285.728a31.968 31.968 0 1 1 45.248 45.248l-308.32 308.352z"  horiz-adv-x="1024" />

    
    <glyph glyph-name="down" unicode="&#58880;" d="M1024 300C1024 582.77 794.77 812 512 812s-512-229.23-512-512 229.23-512 512-512S1024 17.23 1024 300zM96 300c0 229.75 186.25 416 416 416S928 529.75 928 300s-186.25-416-416-416S96 70.25 96 300zM557.254-1.256l256 256.002c24.994 24.992 24.994 65.514 0 90.508-24.994 24.994-65.516 24.994-90.51 0L576 198.51 576 556c0 35.346-28.654 64-64 64-35.346 0-64-28.654-64-64l0-357.49-146.744 146.746c-24.994 24.994-65.518 24.994-90.512 0C198.248 332.758 192 316.378 192 300s6.248-32.758 18.744-45.254l256-256.002C491.738-26.248 532.262-26.248 557.254-1.256z"  horiz-adv-x="1024" />

    
    <glyph glyph-name="down1" unicode="&#59011;" d="M764.208 355.616 741.584 378.256 520 156.656 520 648 488 648 488 158.752 270.752 376 247.968 353.2 497.408 103.744 509.12 115.472 516.592 108Z"  horiz-adv-x="1024" />

    
    <glyph glyph-name="down11" unicode="&#58954;" d="M764.326842 317.955818l-222.712361-222.722594c-3.837398-3.837398-9.046027-5.996574-14.479783-5.996574-5.423523 0-10.632151 2.159176-14.46955 5.996574l-222.722594 222.732827c-7.992021 7.992021-7.992021 20.947078 0 28.939099s20.947078 7.992021 28.939099 0l187.78692-187.78692 0 603.89392c0 11.307533 9.15859 20.466124 20.466124 20.466124s20.466124-9.15859 20.466124-20.466124l0-603.89392 187.776687 187.776687c8.002254 7.992021 20.957311 7.992021 28.949332 0S772.318864 325.947839 764.326842 317.955818zM842.875826 37.928077c0-11.2973-9.15859-20.466124-20.466124-20.466124l-590.550007 0c-11.307533 0-20.466124 9.168824-20.466124 20.466124 0 11.307533 9.15859 20.466124 20.466124 20.466124l590.550007 0C833.717236 58.394201 842.875826 49.23561 842.875826 37.928077z"  horiz-adv-x="1024" />

    
    <glyph glyph-name="down2" unicode="&#58882;" d="M478.312 251.841c24.38-26.902 64.507-26.539 88.507 0.889l270.569 309.222c7.759 8.867 6.86 22.345-2.007 30.103-8.867 7.759-22.345 6.86-30.103-2.007l-270.569-309.222c-7.202-8.231-17.541-8.324-24.782-0.334l-280.786 309.833c-7.912 8.73-21.403 9.394-30.133 1.482-8.73-7.912-9.394-21.403-1.482-30.133l280.786-309.833z"  horiz-adv-x="1024" />

    
    <glyph glyph-name="down3" unicode="&#59148;" d="M512 300.141714l206.482286 206.518857a18.285714 18.285714 0 0 0 25.892571-25.892571l-219.428571-219.428571a18.285714 18.285714 0 0 0-25.892572 0l-219.428571 219.428571a18.285714 18.285714 0 0 0 25.892571 25.892571L512 300.141714z"  horiz-adv-x="1024" />

    
    <glyph glyph-name="down4" unicode="&#59725;" d="M895.7 595.9c0-9.6-3.2-19.3-9.6-27.4L545.2 144.7c-8.3-10.3-20.8-16.3-34.1-16.3-13.2 0-25.8 6-34 16.3L138 566.7c-15.1 18.8-12.1 46.3 6.7 61.4 18.8 15.1 46.3 12.1 61.4-6.7l305.1-379.6L818 623.3c15.1 18.8 42.6 21.8 61.4 6.7 10.7-8.7 16.3-21.3 16.3-34.1z"  horiz-adv-x="1024" />

    
    <glyph glyph-name="down5" unicode="&#58905;" d="M836.664 593.514c17.528 17.184 45.666 16.906 62.85-0.622 17.184-17.528 16.906-45.666-0.622-62.85L536.226 174.486c-17.53-17.186-45.674-16.906-62.858 0.628L124.924 530.67c-17.18 17.53-16.896 45.67 0.634 62.85 17.532 17.18 45.672 16.896 62.852-0.634L505.74 269.08l330.924 324.434z"  horiz-adv-x="1024" />

    
    <glyph glyph-name="Downarrow" unicode="&#58928;" d="M512-59.733333c-121.890133 0-227.293867 43.605333-313.2928 129.5872C112.145067 156.416 68.266667 262.0928 68.266667 384c0 121.924267 43.895467 227.345067 130.491733 313.326933C284.654933 783.837867 389.7856 827.733333 511.146667 827.733333c122.743467 0 228.437333-43.8784 314.999466-130.440533C912.128 611.293867 955.733333 505.890133 955.733333 384c0-121.873067-43.588267-227.549867-129.536-314.112C739.549867-16.145067 633.873067-59.733333 512-59.733333z m0 853.333333c-112.776533 0-209.7664-40.516267-289.109333-120.405333C142.916267 593.7664 102.4 496.4864 102.4 384c0-112.520533 40.533333-210.090667 120.439467-290.013867C302.199467 14.626133 399.496533-25.6 512-25.6c112.5376 0 210.1248 40.2432 290.048 119.637333C881.3568 173.8752 921.6 271.4624 921.6 384c0 112.503467-40.226133 209.800533-119.586133 289.160533C722.090667 753.066667 624.520533 793.6 512 793.6zM511.146667 179.2a33.979733 33.979733 0 0 0-24.32 10.1888l-170.478934 170.478933a34.133333 34.133333 0 1 0 48.264534 48.264534l112.401066-112.401067V553.813333a34.133333 34.133333 0 0 0 68.266667 0v-258.082133l112.401067 112.401067a34.133333 34.133333 0 1 0 48.264533-48.264534l-170.666667-170.666666-0.034133-0.034134A33.928533 33.928533 0 0 0 511.146667 179.2z"  horiz-adv-x="1024" />

    
    <glyph glyph-name="down6" unicode="&#58900;" d="M153.2 388.9L549.1-7l397.2 397.2c7.8 7.8 20.5 7.8 28.3 0 7.8-7.8 7.8-20.5 0-28.3L565.4-47.2c-9-9-23.6-9-32.6 0L124.9 360.6c-7.8 7.8-7.8 20.5 0 28.3 7.8 7.8 20.5 7.8 28.3 0z"  horiz-adv-x="1024" />

    
    <glyph glyph-name="Down" unicode="&#58908;" d="M316.16 529.493333L512 334.08l195.84 195.413333L768 469.333333l-256-256-256 256z"  horiz-adv-x="1024" />

    


  </font>
</defs>
</svg>
